<svg xmlns="http://www.w3.org/2000/svg" id="floppy-icon" viewBox="0 0 28 28">
  <path
    fill="currentColor"
    d="M0 0h2.15v2.15H0zm0 2.15h2.15V4.3H0zm0 2.16h2.15v2.15H0zm0 2.15h2.15v2.15H0zm0 2.16h2.15v2.15H0zm0 2.15h2.15v2.15H0zm0 2.15h2.15v2.15H0zm0 2.16h2.15v2.15H0zm0 2.15h2.15v2.15H0zm0 2.15h2.15v2.15H0zm0 2.16h2.15v2.15H0zm0 2.15h2.15v2.15H0zm0 2.16h2.15V28H0zM23.7 0v2.15h-2.16V0zm-2.16 0v2.15h-2.15V0zm-2.16 0v2.15h-2.15V0zm-2.15 0v2.15h-2.15V0zm-2.15 0v2.15h-2.15V0zm-2.16 0v2.15h-2.15V0zm-2.15 0v2.15H8.62V0zM8.62 0v2.15H6.47V0zM6.46 0v2.15H4.31V0zM4.3 0v2.15H2.17V0zm21.55 2.16V4.3H23.7V2.16zM6.46 4.3v2.16H4.3V4.3zm0-2.15V4.3H4.31V2.15zm0 4.31v2.15H4.31V6.46zM21.54 4.3v2.16h-2.15V4.3zm0-2.15V4.3H19.4V2.15zm0 4.31v2.15H19.4V6.46zM17.23 4.3v2.16h-2.15V4.3zm0-2.15V4.3h-2.15V2.15zm0 4.31v2.15h-2.15V6.46zm4.3 2.16v2.15h-2.15V8.62zm-2.15-.01v2.15h-2.15V8.61zm-2.15 0v2.15h-2.15V8.61zm-2.16.01v2.15h-2.15V8.62zm-2.15-.01v2.15h-2.15V8.61zm-2.16.01v2.15H9.01V8.62zm-2.15 0v2.15H6.86V8.62zm-2.15-.01v2.15H4.7V8.61zm17.23 6.46v2.15h-2.15v-2.15zm-2.15.01v2.15h-2.15v-2.15zm-2.16-.01v2.15h-2.15v-2.15zm-2.15.01v2.15h-2.15v-2.15zm-2.16 0v2.15h-2.15v-2.15zm-2.15-.01v2.15h-2.15v-2.15zm-2.15.01v2.15H9.02v-2.15zm-2.16 0v2.15H6.86v-2.15zm-2.15 0v2.15H4.7v-2.15zm17.24 2.15v2.15h-2.16v-2.15zm-17.24 0v2.15H4.31v-2.15zm17.24 2.15v2.15h-2.15v-2.15zm-17.23 0v2.15H4.32v-2.15zm17.23 2.16v2.15h-2.16v-2.15zm-17.24 0v2.15H4.3v-2.15zm0 2.16v2.14H4.31V23.7zm17.24-.01v2.15h-2.15v-2.15zm2.14 2.16V28H23.7v-2.15zm-2.15-.01V28h-2.15v-2.15zm-2.16.01V28h-2.15v-2.15zm-2.15-.01V28h-2.15v-2.15zm-2.15.01V28h-2.15v-2.15zm-2.16 0V28h-2.15v-2.15zm-2.15-.01V28h-2.15v-2.15zm-2.15.01V28H9.02v-2.15zm-2.16 0V28H6.86v-2.15zm-2.15-.01V28H4.7v-2.15zm-2.16.01V28H2.55v-2.15zM28 28h-2.15v-2.15H28zm0-2.16h-2.15V23.7H28zm0-2.14h-2.15v-2.16H28zm0-2.16h-2.15v-2.15H28zm0-2.15h-2.15v-2.15H28zm0-2.16h-2.15v-2.15H28zm0-2.16h-2.15v-2.15H28z"
  />
  <path
    fill="currentColor"
    d="M28 12.93h-2.15v-2.15H28zm0-2.16h-2.15V8.62H28zm0-2.16h-2.15V6.46H28zm0-2.15h-2.15V4.31H28z"
  />
</svg>